<svg width="24" height="26" viewBox="0 0 24 26" fill="none" xmlns="http://www.w3.org/2000/svg">
<g clip-path="url(#clip0_108_1188)">
<path d="M11.4991 0.00330723C11.285 0.0204463 11.0854 0.117568 10.9379 0.271819C8.34589 2.97122 4.63146 4.19666 0.8505 4.28807C0.378964 4.29664 0 4.67941 0 5.14502C0 15.677 4.67196 23.6466 11.3198 25.6776C11.4846 25.7262 11.6611 25.7262 11.826 25.6776C18.4738 23.6495 23.1429 15.6798 23.1429 5.14502C23.1429 4.67941 22.7639 4.29664 22.2924 4.28807C18.5114 4.19666 14.797 2.97122 12.2021 0.271819C12.0198 0.0804329 11.7624 -0.0166883 11.4962 0.00330723H11.4991ZM11.5714 2.02857C14.2734 4.49659 17.8026 5.66776 21.3609 5.91057C21.1352 15.3742 16.9203 22.1213 11.5714 23.9237C6.22254 22.1241 2.00475 15.3742 1.782 5.91342C5.34021 5.67062 8.87239 4.49945 11.5714 2.03143V2.02857ZM16.4546 8.84991C16.2289 8.8642 16.0177 8.96132 15.8673 9.127L10.4056 14.7772L7.84832 12.252C7.50986 11.9178 6.95732 11.9178 6.61886 12.252C6.28039 12.5862 6.28039 13.1318 6.61886 13.466L9.801 16.6082C10.1424 16.9424 10.692 16.9367 11.0276 16.6025C11.0305 16.5996 11.0363 16.5939 11.0391 16.5911L17.1141 10.3067C17.4497 9.96681 17.4439 9.42693 17.0997 9.09557C16.929 8.9299 16.6947 8.84134 16.4546 8.85277V8.84991Z" fill="#858585"/>
</g>
<defs>
<clipPath id="clip0_108_1188">
<rect width="23.1429" height="25.7143" fill="white"/>
</clipPath>
</defs>
</svg>
