<svg width="21" height="25" viewBox="0 0 21 25" fill="none" xmlns="http://www.w3.org/2000/svg">
<path d="M10.2857 0C6.97714 0 4.28571 2.73949 4.28571 6.10714V9.59694H2.57143C1.14857 9.59694 0 10.766 0 12.2143V21.8112C0 23.2595 1.14857 24.4286 2.57143 24.4286H18C19.4229 24.4286 20.5714 23.2595 20.5714 21.8112V12.2143C20.5714 10.766 19.4229 9.59694 18 9.59694H16.2857V6.10714C16.2857 2.73949 13.5943 0 10.2857 0ZM6 6.10714C6 3.69918 7.92 1.7449 10.2857 1.7449C12.6514 1.7449 14.5714 3.69918 14.5714 6.10714V9.59694H6V6.10714ZM18.8571 12.2143V21.8112C18.8571 22.2911 18.4714 22.6837 18 22.6837H2.57143C2.1 22.6837 1.71429 22.2911 1.71429 21.8112V12.2143C1.71429 11.7344 2.1 11.3418 2.57143 11.3418H18C18.4714 11.3418 18.8571 11.7344 18.8571 12.2143Z" fill="#858585"/>
<path d="M10.2857 13.087C8.87141 13.087 7.71426 14.2473 7.71426 15.6869C7.71426 16.8123 8.41712 17.8069 9.45426 18.1646C9.43712 18.217 9.42855 18.2606 9.42855 18.313V20.0579C9.42855 20.5377 9.81426 20.9303 10.2857 20.9303C10.7571 20.9303 11.1428 20.5377 11.1428 20.0579V18.313C11.1428 18.2606 11.1257 18.2083 11.1171 18.1646C12.4628 17.7022 13.1828 16.2191 12.7286 14.8581C12.3771 13.7937 11.3914 13.0783 10.2943 13.087H10.2857ZM10.2857 16.5768C9.81426 16.5768 9.42855 16.1842 9.42855 15.7043C9.42855 15.2245 9.81426 14.8319 10.2857 14.8319C10.7571 14.8319 11.1428 15.2245 11.1428 15.7043C11.1428 16.1842 10.7571 16.5768 10.2857 16.5768Z" fill="#858585"/>
</svg>
